{"title":"Pixels 2015 HDCAM NEW SOURCE XViD AC3-MRG","uid":12167320,"size":1524003806,"categoryP":"video","categoryS":"movies","magnet":"?xt=urn:btih:9e2a5c4efc13139bfbb822c18842189ef9d160b4&amp;dn=Pixels+2015+HDCAM+NEW+SOURCE+XViD+AC3-MRG&amp;tr=udp%3A%2F%2Ftracker.openbittorrent.com%3A80&amp;tr=udp%3A%2F%2Fopen.demonii.com%3A1337&amp;tr=udp%3A%2F%2Ftracker.coppersurfer.tk%3A6969&amp;tr=udp%3A%2F%2Fexodus.desync.com%3A6969","seeders":0,"leechers":1,"uploader":"roflcopter2110","files":3,"time":1438070875,"description":" &lt;a href=&quot;http://imageshots.org/upload/small/2015/07/27/55b701fad6aa5.jpg&quot; rel=&quot;nofollow&quot; target=&quot;_NEW&quot;&gt;http://imageshots.org/upload/small/2015/07/27/55b701fad6aa5.jpg&lt;/a&gt;\n\nPixels {2015} HDCAM NEW SOURCE XViD AC3-MRG\n\nIMDB : http://www.imdb.com/title/tt2120120/\n\nFormat                      : AVI\nFormat/Info                 : Audio Video Interleave\nFile size                   : 1.42 GiB\nDuration                    : 1h 41mn\nOverall bit rate            : 2 006 Kbps\nWriting library             : VirtualDub build 35491/release\n\nVideo\nID                          : 0\nFormat                      : MPEG-4 Visual\nFormat profile              : Advanced Simple@L5\nFormat settings, BVOP       : 2\nFormat settings, QPel       : No\nFormat settings, GMC        : No warppoints\nFormat settings, Matrix     : Default (H.263)\nCodec ID                    : XVID\nCodec ID/Hint               : XviD\nDuration                    : 1h 41mn\nBit rate                    : 1 836 Kbps\nWidth                       : 640 pixels\nHeight                      : 292 pixels\nDisplay aspect ratio        : 2.2:1\nFrame rate                  : 25.000 fps\nColor space                 : YUV\nChroma subsampling          : 4:2:0\nBit depth                   : 8 bits\nScan type                   : Progressive\nCompression mode            : Lossy\nBits/(Pixel*Frame)          : 0.393\nStream size                 : 1.30 GiB (92%)\nWriting library             : XviD 73\n\nAudio\nID                          : 1\nFormat                      : AC-3\nFormat/Info                 : Audio Coding 3\nMode extension              : CM (complete main)\nFormat settings, Endianness : Big\nCodec ID                    : 2000\nDuration                    : 1h 41mn\nBit rate mode               : Constant\nBit rate                    : 160 Kbps\nChannel(s)                  : 2 channels\nChannel positions           : Front: L R\nSampling rate               : 44.1 KHz\nCompression mode            : Lossy\nStream size                 : 116 MiB (8%)\nAlignment                   : Split accross interleaves\nInterleave, duration        : 40 ms (1.00 video frame)\nInterleave, preload duratio : 500 ms\n\nScreens: &lt;a href=&quot;\nhttp://imageshots.org/upload/big/2015/07/27/55b700e09cce0.png&quot; rel=&quot;nofollow&quot; target=&quot;_NEW&quot;&gt;\nhttp://imageshots.org/upload/big/2015/07/27/55b700e09cce0.png&lt;/a&gt; &lt;a href=&quot;\nhttp://imageshots.org/upload/big/2015/07/27/55b700e0b0637.png&quot; rel=&quot;nofollow&quot; target=&quot;_NEW&quot;&gt;\nhttp://imageshots.org/upload/big/2015/07/27/55b700e0b0637.png&lt;/a&gt; &lt;a href=&quot;\nhttp://imageshots.org/upload/big/2015/07/27/55b700e0b924e.png&quot; rel=&quot;nofollow&quot; target=&quot;_NEW&quot;&gt;\nhttp://imageshots.org/upload/big/2015/07/27/55b700e0b924e.png&lt;/a&gt; &lt;a href=&quot;\nhttp://imageshots.org/upload/big/2015/07/27/55b700e0c1b80.png&quot; rel=&quot;nofollow&quot; target=&quot;_NEW&quot;&gt;\nhttp://imageshots.org/upload/big/2015/07/27/55b700e0c1b80.png&lt;/a&gt;","torrent":{"xt":"urn:btih:9e2a5c4efc13139bfbb822c18842189ef9d160b4","amp;dn":"Pixels+2015+HDCAM+NEW+SOURCE+XViD+AC3-MRG","amp;tr":["udp%3A%2F%2Ftracker.openbittorrent.com%3A80","udp%3A%2F%2Fopen.demonii.com%3A1337","udp%3A%2F%2Ftracker.coppersurfer.tk%3A6969","udp%3A%2F%2Fexodus.desync.com%3A6969"],"infoHash":"9e2a5c4efc13139bfbb822c18842189ef9d160b4","infoHashBuffer":{"type":"Buffer","data":[158,42,92,78,252,19,19,155,251,184,34,193,136,66,24,158,249,209,96,180]},"announce":[],"urlList":[]}}